<svg id="Layer_1" enable-background="new 0 0 512 512" height="512" viewBox="0 0 512 512" width="512" xmlns="http://www.w3.org/2000/svg"><g><path d="m250 56c-11.046 0-20 8.954-20 20 0-11.046-8.954-20-20-20s-20 8.954-20 20c0-11.046-8.954-20-20-20s-20 8.954-20 20c0-11.046-8.954-20-20-20s-20 8.954-20 20c0-11.046-8.954-20-20-20s-20 8.954-20 20c0 55.229 44.772 100 100 100s100-44.771 100-100c0-11.046-8.954-20-20-20z" fill="#ffbdbc"/><path d="m48.182 297.818c33.137 33.137 81.818 38.182 81.818 38.182s-5.045-48.681-38.182-81.818-81.818-38.182-81.818-38.182 5.045 48.681 38.182 81.818z" fill="#b8ecbc"/><path d="m291.818 237.818c-33.137 33.137-81.818 38.182-81.818 38.182s5.045-48.681 38.182-81.818 81.818-38.182 81.818-38.182-5.045 48.681-38.182 81.818z" fill="#b8ecbc"/><g><path d="m482 266c-11.046 0-20 8.954-20 20 0-11.046-8.954-20-20-20s-20 8.954-20 20c0-11.046-8.954-20-20-20s-20 8.954-20 20c0-11.046-8.954-20-20-20s-20 8.954-20 20c0-11.046-8.954-20-20-20s-20 8.954-20 20c0 55.229 44.772 100 100 100s100-44.771 100-100c0-11.046-8.954-20-20-20z" fill="#ffbdbc"/><g fill="#ff5d7d"><path d="m214.686 285.457c12.515-1.92 53.969-10.333 84.204-40.567 35.241-35.242 40.836-85.727 41.057-87.858.311-2.996-.746-5.973-2.875-8.103-2.13-2.13-5.106-3.189-8.102-2.875-2.132.221-52.617 5.815-87.859 41.057-30.235 30.236-38.648 71.69-40.568 84.205l-20.543 20.541v-106.308c55.986-5.068 100-52.265 100-109.549 0-16.542-13.458-30-30-30-7.677 0-14.689 2.898-20 7.658-5.311-4.76-12.323-7.658-20-7.658s-14.689 2.898-20 7.658c-5.311-4.76-12.323-7.658-20-7.658s-14.689 2.898-20 7.658c-5.311-4.76-12.323-7.658-20-7.658s-14.689 2.898-20 7.658c-5.311-4.76-12.323-7.658-20-7.658-16.542 0-30 13.458-30 30 0 57.284 44.014 104.48 100 109.549v166.309l-20.542-20.542c-1.92-12.514-10.333-53.969-40.568-84.205-35.242-35.241-85.727-40.836-87.858-41.057-2.992-.318-5.972.745-8.102 2.875-2.129 2.13-3.186 5.106-2.875 8.103.221 2.132 5.816 52.616 41.057 87.858 30.235 30.234 71.689 38.647 84.204 40.567l34.684 34.686v75.857c0 5.522 4.477 10 10 10s10-4.478 10-10v-135.857zm40.567-84.204c19.904-19.903 46.408-28.899 62.22-32.726-3.827 15.816-12.824 42.318-32.725 62.22-12.674 12.674-28.025 20.925-41.587 26.235l33.911-33.911c3.905-3.905 3.905-10.237 0-14.143-3.905-3.904-10.237-3.904-14.143 0l-33.91 33.91c5.31-13.562 13.561-28.912 26.234-41.585zm-200 89.494c-19.917-19.918-28.912-46.443-32.733-62.251 15.779 3.793 42.227 12.756 62.228 32.757 12.675 12.675 20.926 28.025 26.236 41.587l-33.911-33.912c-3.905-3.904-10.237-3.904-14.143 0-3.905 3.905-3.905 10.237 0 14.143l33.982 33.982c-13.553-5.299-28.915-13.561-41.659-26.306zm194.747-224.747c5.514 0 10 4.486 10 10 0 29.96-14.715 56.547-37.297 72.915 11.173-20.03 17.297-45.766 17.297-72.915 0-5.514 4.486-10 10-10zm-40 0c5.514 0 10 4.486 10 10 0 33.656-10.898 63.709-26.556 79.112.18-.799.336-1.52.471-2.144 3.981-18.382 6.085-44.998 6.085-76.968 0-5.514 4.486-10 10-10zm-40 0c5.514 0 10 4.486 10 10 0 54.184-5.979 78.603-10 87.169-4.021-8.566-10-32.985-10-87.169 0-5.514 4.486-10 10-10zm-40 0c5.514 0 10 4.486 10 10 0 31.97 2.104 58.586 6.084 76.969.135.624.291 1.344.471 2.144-15.657-15.404-26.555-45.457-26.555-79.113 0-5.514 4.486-10 10-10zm-50 10c0-5.514 4.486-10 10-10s10 4.486 10 10c0 27.149 6.124 52.885 17.297 72.915-22.582-16.368-37.297-42.955-37.297-72.915z"/><path d="m512 286c0-16.542-13.458-30-30-30-7.677 0-14.689 2.898-20 7.658-5.311-4.76-12.323-7.658-20-7.658s-14.689 2.898-20 7.658c-5.311-4.76-12.323-7.658-20-7.658s-14.689 2.898-20 7.658c-5.311-4.76-12.323-7.658-20-7.658s-14.689 2.898-20 7.658c-5.311-4.76-12.323-7.658-20-7.658-16.542 0-30 13.458-30 30 0 57.284 44.014 104.48 100 109.549v60.451c0 5.522 4.477 10 10 10s10-4.478 10-10v-60.451c55.986-5.068 100-52.265 100-109.549zm-70-10c5.514 0 10 4.486 10 10 0 33.656-10.898 63.709-26.556 79.112.18-.799.336-1.52.471-2.144 3.981-18.382 6.085-44.998 6.085-76.968 0-5.514 4.486-10 10-10zm-40 0c5.514 0 10 4.486 10 10 0 54.184-5.979 78.603-10 87.169-4.021-8.566-10-32.985-10-87.169 0-5.514 4.486-10 10-10zm-40 0c5.514 0 10 4.486 10 10 0 31.97 2.104 58.586 6.084 76.969.135.624.291 1.344.471 2.144-15.657-15.404-26.555-45.457-26.555-79.113 0-5.514 4.486-10 10-10zm-50 10c0-5.514 4.486-10 10-10s10 4.486 10 10c0 27.149 6.124 52.885 17.297 72.915-22.582-16.368-37.297-42.955-37.297-72.915zm142.703 72.915c11.173-20.03 17.297-45.766 17.297-72.915 0-5.514 4.486-10 10-10s10 4.486 10 10c0 29.96-14.715 56.547-37.297 72.915z"/></g></g></g></svg>